<?xml version="1.0" encoding="UTF-8" standalone="no"?>
<!-- Created with Inkscape (http://www.inkscape.org/) -->

<svg
   xmlns:dc="http://purl.org/dc/elements/1.1/"
   xmlns:cc="http://creativecommons.org/ns#"
   xmlns:rdf="http://www.w3.org/1999/02/22-rdf-syntax-ns#"
   xmlns:svg="http://www.w3.org/2000/svg"
   xmlns="http://www.w3.org/2000/svg"
   xmlns:sodipodi="http://sodipodi.sourceforge.net/DTD/sodipodi-0.dtd"
   xmlns:inkscape="http://www.inkscape.org/namespaces/inkscape"
   width="210mm"
   height="77mm"
   viewBox="0 0 210 77"
   version="1.1"
   id="svg8"
   inkscape:version="0.92.4 (unknown)"
   sodipodi:docname="catekeysis3.svg"
   inkscape:export-filename="/home/royalcardman/catekeysis.png"
   inkscape:export-xdpi="90"
   inkscape:export-ydpi="90">
  <defs
     id="defs2" />
  <sodipodi:namedview
     id="base"
     pagecolor="#ffffff"
     bordercolor="#666666"
     borderopacity="1.0"
     inkscape:pageopacity="0.0"
     inkscape:pageshadow="2"
     inkscape:zoom="0.98994949"
     inkscape:cx="434.78588"
     inkscape:cy="178.69606"
     inkscape:document-units="mm"
     inkscape:current-layer="layer1"
     showgrid="false"
     showguides="true"
     inkscape:window-width="1920"
     inkscape:window-height="939"
     inkscape:window-x="0"
     inkscape:window-y="30"
     inkscape:window-maximized="1" />
  <metadata
     id="metadata5">
    <rdf:RDF>
      <cc:Work
         rdf:about="">
        <dc:format>image/svg+xml</dc:format>
        <dc:type
           rdf:resource="http://purl.org/dc/dcmitype/StillImage" />
        <dc:title />
      </cc:Work>
    </rdf:RDF>
  </metadata>
  <g
     inkscape:label="Layer 1"
     inkscape:groupmode="layer"
     id="layer1"
     transform="translate(0,-220)">
    <g
       id="g905"
       transform="translate(0,114.13284)">
      <g
         id="g893">
        <g
           aria-label="Cate   sis"
           style="font-style:normal;font-variant:normal;font-weight:normal;font-stretch:normal;font-size:46.25047302px;line-height:125%;font-family:Raleway;-inkscape-font-specification:Raleway;letter-spacing:0px;word-spacing:0px;fill:#000000;fill-opacity:1;stroke:none;stroke-width:0.61942601px;stroke-linecap:butt;stroke-linejoin:miter;stroke-opacity:1"
           id="text817">
          <g
             id="g2751"
             transform="translate(-8.9958338)">
            <path
               inkscape:connector-curvature="0"
               id="path870"
               style="font-style:normal;font-variant:normal;font-weight:500;font-stretch:normal;font-family:Raleway;-inkscape-font-specification:'Raleway Medium';stroke-width:0.61942601px"
               d="m 10.73467,144.36715 q 0,-2.96003 1.01751,-5.87381 1.063761,-2.96003 3.052532,-5.27256 2.03502,-2.35877 4.9488,-3.79253 2.91378,-1.43377 6.613818,-1.43377 4.393795,0 7.538827,1.98877 3.145032,1.98877 4.671298,5.18005 l -3.283784,2.12753 q -0.740007,-1.57252 -1.803768,-2.63628 -1.017511,-1.06376 -2.266273,-1.71127 -1.202513,-0.64751 -2.497526,-0.92501 -1.295013,-0.2775 -2.543776,-0.2775 -2.728778,0 -4.8563,1.15626 -2.081271,1.11001 -3.515036,2.96003 -1.433764,1.80377 -2.173772,4.11629 -0.693757,2.26628 -0.693757,4.5788 0,2.59003 0.832509,4.9488 0.878759,2.31252 2.405024,4.11629 1.526266,1.80377 3.607537,2.86753 2.081271,1.06376 4.532546,1.06376 1.295014,0 2.636277,-0.32375 1.387515,-0.32375 2.636277,-1.01751 1.248763,-0.74001 2.312524,-1.80377 1.110011,-1.11001 1.803768,-2.63628 l 3.468786,1.89627 q -0.786258,1.85002 -2.220023,3.28379 -1.387514,1.38751 -3.191282,2.35877 -1.757518,0.97126 -3.746289,1.48002 -1.98877,0.50875 -3.88504,0.50875 -3.376284,0 -6.197563,-1.48001 -2.821279,-1.48002 -4.90255,-3.83879 -2.035021,-2.40503 -3.191283,-5.41131 -1.110011,-3.05253 -1.110011,-6.19756 z" />
            <path
               inkscape:connector-curvature="0"
               id="path872"
               style="font-style:normal;font-variant:normal;font-weight:500;font-stretch:normal;font-family:Raleway;-inkscape-font-specification:'Raleway Medium';stroke-width:0.61942601px"
               d="m 49.93845,161.47982 q -1.711268,0 -3.191283,-0.555 -1.480015,-0.60126 -2.590026,-1.61877 -1.063761,-1.01751 -1.711268,-2.35877 -0.601256,-1.38752 -0.601256,-3.00628 0,-1.66502 0.740008,-3.00628 0.740007,-1.38752 2.081271,-2.35878 1.387514,-0.97126 3.237533,-1.52626 1.896269,-0.55501 4.116292,-0.55501 1.757518,0 3.561286,0.32375 1.803769,0.32376 3.191283,0.87876 v -1.94252 q 0,-2.96003 -1.665017,-4.62504 -1.665017,-1.71127 -4.717548,-1.71127 -3.653788,0 -7.677579,2.82128 l -1.341263,-2.63628 q 4.671297,-3.14503 9.388846,-3.14503 4.763798,0 7.400075,2.54377 2.682528,2.54378 2.682528,7.16883 v 9.85135 q 0,1.43376 1.295013,1.48001 v 3.51504 q -0.647507,0.0925 -1.063761,0.13875 -0.416254,0.0462 -0.878759,0.0462 -1.202512,0 -1.94252,-0.69376 -0.693757,-0.74 -0.832508,-1.75751 l -0.0925,-1.71127 q -1.618767,2.17377 -4.116292,3.33003 -2.451275,1.11001 -5.272554,1.11001 z m 1.063761,-3.05253 q 2.173772,0 4.023791,-0.78626 1.896269,-0.8325 2.867529,-2.17377 0.878759,-0.87876 0.878759,-1.80377 v -3.56128 q -2.96003,-1.15626 -6.151313,-1.15626 -3.052531,0 -4.995051,1.29501 -1.896269,1.29501 -1.896269,3.37628 0,1.01751 0.370003,1.89627 0.416255,0.87876 1.110012,1.52627 0.740007,0.6475 1.711267,1.01751 0.97126,0.37 2.081272,0.37 z" />
            <path
               inkscape:connector-curvature="0"
               id="path874"
               style="font-style:normal;font-variant:normal;font-weight:500;font-stretch:normal;font-family:Raleway;-inkscape-font-specification:'Raleway Medium';stroke-width:0.61942601px"
               d="m 81.702408,159.81481 q -0.370004,0.185 -0.97126,0.4625 -0.601256,0.23125 -1.387514,0.50876 -0.740007,0.23125 -1.665017,0.37 -0.878759,0.185 -1.850019,0.185 -2.220023,0 -3.838789,-1.20251 -1.618767,-1.24876 -1.618767,-3.83879 v -16.23392 h -3.283783 v -3.19128 h 3.283783 v -8.04758 h 4.070042 v 8.04758 h 5.411305 v 3.19128 h -5.411305 v 14.98516 q 0.0925,1.34126 0.878759,1.94252 0.786258,0.60125 1.850019,0.60125 1.202512,0 2.173772,-0.37 1.01751,-0.41625 1.387514,-0.64751 z" />
            <path
               inkscape:connector-curvature="0"
               id="path876"
               style="font-style:normal;font-variant:normal;font-weight:500;font-stretch:normal;font-family:Raleway;-inkscape-font-specification:'Raleway Medium';stroke-width:0.61942601px"
               d="m 95.797241,161.47982 q -2.728778,0 -4.995051,-0.97126 -2.266273,-1.01751 -3.88504,-2.72877 -1.618766,-1.71127 -2.543776,-3.97755 -0.878759,-2.31252 -0.878759,-4.85629 0,-2.54378 0.878759,-4.81005 0.92501,-2.26628 2.543776,-3.97754 1.665017,-1.71127 3.931291,-2.68253 2.266273,-1.01751 4.995051,-1.01751 2.728778,0 4.948798,1.01751 2.26628,1.01751 3.83879,2.72878 1.57252,1.66501 2.40503,3.93129 0.87876,2.22002 0.87876,4.62504 0,0.50876 -0.0463,0.92501 0,0.41626 -0.0463,0.64751 H 87.795909 q 0.138752,1.80377 0.832509,3.28378 0.693757,1.48002 1.803768,2.54378 1.110012,1.06376 2.497526,1.66502 1.433765,0.60125 3.006281,0.60125 1.110011,0 2.173772,-0.2775 1.063761,-0.32375 1.988775,-0.83251 0.925,-0.50875 1.61876,-1.24876 0.74001,-0.74001 1.11001,-1.66502 l 3.51504,0.97126 q -0.60126,1.34126 -1.66502,2.45128 -1.01751,1.11001 -2.40502,1.94252 -1.34127,0.78625 -3.006283,1.24876 -1.665017,0.4625 -3.468786,0.4625 z m 8.278839,-14.15264 q -0.13876,-1.71127 -0.87876,-3.14503 -0.69376,-1.48002 -1.80377,-2.49753 -1.06376,-1.01751 -2.497527,-1.57252 -1.433765,-0.60125 -3.052531,-0.60125 -1.618767,0 -3.052531,0.60125 -1.433765,0.55501 -2.543776,1.61877 -1.063761,1.01751 -1.757518,2.45128 -0.647507,1.43376 -0.786258,3.14503 z" />
          </g>
          <g
             id="g2745"
             transform="translate(10.054167)">
            <path
               inkscape:connector-curvature="0"
               id="path878"
               style="font-style:normal;font-variant:normal;font-weight:500;font-stretch:normal;font-family:Raleway;-inkscape-font-specification:'Raleway Medium';stroke-width:0.61942601px"
               d="m 156.17796,161.47982 q -2.91378,0 -5.73506,-0.87876 -2.82128,-0.925 -4.8563,-2.63627 l 1.75752,-2.72878 q 2.12752,1.61877 4.25504,2.45127 2.12752,0.78626 4.4863,0.78626 2.63627,0 4.16254,-1.01751 1.57251,-1.06376 1.57251,-2.96003 0,-0.87876 -0.41625,-1.48001 -0.41625,-0.64751 -1.24876,-1.11001 -0.83251,-0.46251 -2.12752,-0.83251 -1.29502,-0.37001 -3.00628,-0.78626 -2.17378,-0.55501 -3.74629,-1.06376 -1.57252,-0.50876 -2.59003,-1.20251 -1.01751,-0.69376 -1.48001,-1.66502 -0.46251,-0.97126 -0.46251,-2.40503 0,-1.80376 0.69376,-3.19128 0.74001,-1.43376 1.98877,-2.35877 1.24876,-0.97126 2.91378,-1.43377 1.71127,-0.50875 3.65379,-0.50875 2.72877,0 5.08755,0.87876 2.35877,0.87876 3.97754,2.31252 l -1.85002,2.45128 q -1.52627,-1.34127 -3.42254,-1.98878 -1.89627,-0.69375 -3.88504,-0.69375 -2.22002,0 -3.79253,0.97126 -1.52627,0.92501 -1.52627,3.00628 0,0.83251 0.2775,1.38751 0.32376,0.55501 1.01751,0.97126 0.69376,0.41626 1.75752,0.74001 1.11001,0.32375 2.63628,0.69376 2.40502,0.555 4.16254,1.15626 1.80377,0.555 2.96003,1.34126 1.20251,0.78626 1.75752,1.85002 0.60126,1.06376 0.60126,2.59003 0,3.37628 -2.59003,5.36505 -2.59003,1.98877 -6.98382,1.98877 z" />
            <path
               inkscape:connector-curvature="0"
               id="path880"
               style="font-style:normal;font-variant:normal;font-weight:500;font-stretch:normal;font-family:Raleway;-inkscape-font-specification:'Raleway Medium';stroke-width:0.61942601px"
               d="m 170.56835,161.01732 v -24.14275 h 4.07004 v 24.14275 z m 0,-28.67529 v -5.08756 h 4.07004 v 5.08756 z" />
            <path
               inkscape:connector-curvature="0"
               id="path882"
               style="font-style:normal;font-variant:normal;font-weight:500;font-stretch:normal;font-family:Raleway;-inkscape-font-specification:'Raleway Medium';stroke-width:0.61942601px"
               d="m 189.69148,161.47982 q -2.91378,0 -5.73506,-0.87876 -2.82128,-0.925 -4.8563,-2.63627 l 1.75752,-2.72878 q 2.12752,1.61877 4.25504,2.45127 2.12752,0.78626 4.4863,0.78626 2.63627,0 4.16254,-1.01751 1.57251,-1.06376 1.57251,-2.96003 0,-0.87876 -0.41625,-1.48001 -0.41625,-0.64751 -1.24876,-1.11001 -0.83251,-0.46251 -2.12752,-0.83251 -1.29502,-0.37001 -3.00629,-0.78626 -2.17377,-0.55501 -3.74628,-1.06376 -1.57252,-0.50876 -2.59003,-1.20251 -1.01751,-0.69376 -1.48002,-1.66502 -0.4625,-0.97126 -0.4625,-2.40503 0,-1.80376 0.69376,-3.19128 0.74,-1.43376 1.98877,-2.35877 1.24876,-0.97126 2.91378,-1.43377 1.71126,-0.50875 3.65378,-0.50875 2.72878,0 5.08756,0.87876 2.35877,0.87876 3.97754,2.31252 l -1.85002,2.45128 q -1.52627,-1.34127 -3.42254,-1.98878 -1.89627,-0.69375 -3.88504,-0.69375 -2.22002,0 -3.79254,0.97126 -1.52626,0.92501 -1.52626,3.00628 0,0.83251 0.2775,1.38751 0.32376,0.55501 1.01751,0.97126 0.69376,0.41626 1.75752,0.74001 1.11001,0.32375 2.63628,0.69376 2.40502,0.555 4.16254,1.15626 1.80377,0.555 2.96003,1.34126 1.20251,0.78626 1.75752,1.85002 0.60125,1.06376 0.60125,2.59003 0,3.37628 -2.59002,5.36505 -2.59003,1.98877 -6.98382,1.98877 z" />
          </g>
        </g>
      </g>
    </g>
    <g
       id="g2740"
       transform="matrix(0.98967464,-0.6426608,0.6426608,0.98967464,-168.94659,83.749849)">
      <path
         style="color:#000000;font-style:normal;font-variant:normal;font-weight:normal;font-stretch:normal;font-size:medium;line-height:normal;font-family:sans-serif;font-variant-ligatures:normal;font-variant-position:normal;font-variant-caps:normal;font-variant-numeric:normal;font-variant-alternates:normal;font-feature-settings:normal;text-indent:0;text-align:start;text-decoration:none;text-decoration-line:none;text-decoration-style:solid;text-decoration-color:#000000;letter-spacing:normal;word-spacing:normal;text-transform:none;writing-mode:lr-tb;direction:ltr;text-orientation:mixed;dominant-baseline:auto;baseline-shift:baseline;text-anchor:start;white-space:normal;shape-padding:0;clip-rule:nonzero;display:inline;overflow:visible;visibility:visible;opacity:1;isolation:auto;mix-blend-mode:normal;color-interpolation:sRGB;color-interpolation-filters:linearRGB;solid-color:#000000;solid-opacity:1;vector-effect:none;fill:#ffcc00;fill-opacity:1;fill-rule:nonzero;stroke:#000000;stroke-width:3.09713006;stroke-linecap:butt;stroke-linejoin:miter;stroke-miterlimit:4;stroke-dasharray:none;stroke-dashoffset:0;stroke-opacity:1;paint-order:normal;color-rendering:auto;image-rendering:auto;shape-rendering:auto;text-rendering:auto;enable-background:accumulate"
         d="m 125.98284,112.32375 c -6.11196,0 -11.13314,5.02116 -11.13314,11.13312 v 10.19614 c 0,5.11289 3.51463,9.46073 8.24146,10.74618 v 1.57607 h -1.65095 v 9.62529 h 1.65095 v 9.09356 11.71646 h 8.06421 8.06505 v -4.16566 h -3.72795 v -2.08782 h -2.81513 v -1.98632 h 0.91286 v -1.74913 h 5.63022 v -1.72753 h -8.06505 v -9.09356 h 1.47454 v -9.62529 h -1.47454 v -1.6626 c 4.57252,-1.38563 7.93608,-5.65659 7.93608,-10.65965 v -10.19614 c 0,-6.11196 -5.01783,-11.13312 -11.12981,-11.13312 z m 0,6.44071 h 1.9788 c 2.65501,0 4.68908,2.03742 4.68908,4.69241 v 10.19614 c 0,2.655 -2.03407,4.69242 -4.68908,4.69242 h -1.9788 c -2.65499,0 -4.69242,-2.03742 -4.69242,-4.69242 v -10.19614 c 0,-2.65499 2.03743,-4.69241 4.69242,-4.69241 z"
         id="rect819"
         inkscape:connector-curvature="0"
         transform="translate(0,114.13284)" />
      <rect
         ry="1.5377027"
         y="237.59935"
         x="117.13087"
         height="8.7530766"
         width="1.7372519"
         id="rect831"
         style="opacity:1;fill:#ffe378;fill-opacity:1;stroke:none;stroke-width:3.36469102;stroke-linecap:butt;stroke-linejoin:miter;stroke-miterlimit:4;stroke-dasharray:none;stroke-dashoffset:0;stroke-opacity:1;paint-order:normal" />
      <rect
         ry="0.70970893"
         y="238.35233"
         x="117.59859"
         height="4.0398812"
         width="0.80180854"
         id="rect831-3"
         style="opacity:1;fill:#fff1be;fill-opacity:1;stroke:none;stroke-width:1.55293429;stroke-linecap:butt;stroke-linejoin:miter;stroke-miterlimit:4;stroke-dasharray:none;stroke-dashoffset:0;stroke-opacity:1;paint-order:normal" />
      <rect
         ry="0.39864692"
         y="243.12721"
         x="117.56518"
         height="2.2692206"
         width="0.80180854"
         id="rect831-3-6"
         style="opacity:1;fill:#fff1be;fill-opacity:1;stroke:none;stroke-width:1.16387713;stroke-linecap:butt;stroke-linejoin:miter;stroke-miterlimit:4;stroke-dasharray:none;stroke-dashoffset:0;stroke-opacity:1;paint-order:normal" />
      <rect
         rx="0.28397384"
         ry="0.3895537"
         y="243.82216"
         x="117.68211"
         height="0.77910739"
         width="0.56794769"
         id="rect831-3-6-7"
         style="opacity:1;fill:#fffbed;fill-opacity:1;stroke:none;stroke-width:0.57396615;stroke-linecap:butt;stroke-linejoin:miter;stroke-miterlimit:4;stroke-dasharray:none;stroke-dashoffset:0;stroke-opacity:1;paint-order:normal" />
      <rect
         rx="0"
         ry="0.64270854"
         y="269.57147"
         x="125.33794"
         height="17.541023"
         width="1.7372519"
         id="rect831-5"
         style="opacity:1;fill:#ffe378;fill-opacity:1;stroke:none;stroke-width:4.76312828;stroke-linecap:butt;stroke-linejoin:miter;stroke-miterlimit:4;stroke-dasharray:none;stroke-dashoffset:0;stroke-opacity:1;paint-order:normal" />
      <rect
         ry="0.6871562"
         y="270.14072"
         x="125.78372"
         height="10.079851"
         width="0.80180854"
         id="rect831-3-3"
         style="opacity:1;fill:#fff1be;fill-opacity:1;stroke:none;stroke-width:2.45299029;stroke-linecap:butt;stroke-linejoin:miter;stroke-miterlimit:4;stroke-dasharray:none;stroke-dashoffset:0;stroke-opacity:1;paint-order:normal" />
      <rect
         ry="0.40090427"
         y="281.55692"
         x="125.81713"
         height="4.8680954"
         width="0.80180854"
         id="rect831-3-3-5"
         style="opacity:1;fill:#fff1be;fill-opacity:1;stroke:none;stroke-width:1.70470142;stroke-linecap:butt;stroke-linejoin:miter;stroke-miterlimit:4;stroke-dasharray:none;stroke-dashoffset:0;stroke-opacity:1;paint-order:normal" />
      <rect
         rx="0.17176217"
         ry="0.18075573"
         y="282.34494"
         x="126.04037"
         height="3.0508983"
         width="0.34352434"
         id="rect831-3-6-7-6"
         style="opacity:1;fill:#fffbed;fill-opacity:1;stroke:none;stroke-width:0.88333637;stroke-linecap:butt;stroke-linejoin:miter;stroke-miterlimit:4;stroke-dasharray:none;stroke-dashoffset:0;stroke-opacity:1;paint-order:normal" />
      <rect
         rx="0"
         ry="0.12123989"
         y="263.28094"
         x="123.71238"
         height="3.3089211"
         width="1.1358955"
         id="rect831-5-2"
         style="opacity:1;fill:#ffe378;fill-opacity:1;stroke:none;stroke-width:1.67280674;stroke-linecap:butt;stroke-linejoin:miter;stroke-miterlimit:4;stroke-dasharray:none;stroke-dashoffset:0;stroke-opacity:1;paint-order:normal" />
      <rect
         ry="0.18469746"
         y="263.59985"
         x="123.85412"
         height="2.7093155"
         width="0.80180854"
         id="rect831-3-3-9"
         style="opacity:1;fill:#fff1be;fill-opacity:1;stroke:none;stroke-width:1.27174067;stroke-linecap:butt;stroke-linejoin:miter;stroke-miterlimit:4;stroke-dasharray:none;stroke-dashoffset:0;stroke-opacity:1;paint-order:normal" />
      <rect
         rx="0.17176217"
         ry="0.088381097"
         y="264.21405"
         x="123.94862"
         height="1.4917465"
         width="0.34352434"
         id="rect831-3-6-7-6-1"
         style="opacity:1;fill:#fffbed;fill-opacity:1;stroke:none;stroke-width:0.61767465;stroke-linecap:butt;stroke-linejoin:miter;stroke-miterlimit:4;stroke-dasharray:none;stroke-dashoffset:0;stroke-opacity:1;paint-order:normal" />
    </g>
  </g>
</svg>
