<?xml version="1.0" encoding="UTF-8" standalone="no"?>
<!-- Created with Inkscape (http://www.inkscape.org/) -->

<svg
   xmlns:dc="http://purl.org/dc/elements/1.1/"
   xmlns:cc="http://creativecommons.org/ns#"
   xmlns:rdf="http://www.w3.org/1999/02/22-rdf-syntax-ns#"
   xmlns:svg="http://www.w3.org/2000/svg"
   xmlns="http://www.w3.org/2000/svg"
   xmlns:sodipodi="http://sodipodi.sourceforge.net/DTD/sodipodi-0.dtd"
   xmlns:inkscape="http://www.inkscape.org/namespaces/inkscape"
   width="210mm"
   height="297mm"
   viewBox="0 0 210 297"
   version="1.1"
   id="svg8"
   inkscape:version="0.92.4 (unknown)"
   sodipodi:docname="drawing.svg">
  <defs
     id="defs2" />
  <sodipodi:namedview
     id="base"
     pagecolor="#000000"
     bordercolor="#666666"
     borderopacity="1.0"
     inkscape:pageopacity="0"
     inkscape:pageshadow="2"
     inkscape:zoom="0.35"
     inkscape:cx="355.30468"
     inkscape:cy="389.14603"
     inkscape:document-units="mm"
     inkscape:current-layer="layer1"
     showgrid="false"
     inkscape:lockguides="true"
     inkscape:window-width="1920"
     inkscape:window-height="939"
     inkscape:window-x="0"
     inkscape:window-y="30"
     inkscape:window-maximized="1" />
  <metadata
     id="metadata5">
    <rdf:RDF>
      <cc:Work
         rdf:about="">
        <dc:format>image/svg+xml</dc:format>
        <dc:type
           rdf:resource="http://purl.org/dc/dcmitype/StillImage" />
        <dc:title></dc:title>
      </cc:Work>
    </rdf:RDF>
  </metadata>
  <g
     inkscape:label="Layer 1"
     inkscape:groupmode="layer"
     id="layer1">
    <path
       style="opacity:1;fill:#ffffff;fill-opacity:1;stroke:none;stroke-width:9.94387913;stroke-linecap:butt;stroke-linejoin:miter;stroke-miterlimit:4;stroke-dasharray:none;stroke-dashoffset:0;stroke-opacity:1;paint-order:normal"
       d="m 113.53979,44.142866 c 0,0 3.42544,33.477925 1.22325,48.224228 -0.0785,0.525459 -0.14667,1.035696 -0.21317,1.544129 h 10.32457 c 0.38074,-3.022669 0.52262,-5.828037 0.26589,-8.09424 z M 94.447592,63.265191 c 0,0 2.230302,18.340224 1.313642,30.646032 h 9.946436 z m 45.713708,9.522368 c 0,0 1.56026,11.45354 1.28577,21.123664 h 7.91949 z M 95.672352,94.993618 c -0.08617,0.926996 -0.194073,1.809171 -0.322384,2.643848 h 10.597982 c 0.0808,-0.945912 0.0944,-1.835368 0.0233,-2.643848 z m 18.744958,0 c -0.10696,0.912314 -0.1889,1.787593 -0.25912,2.643848 h 10.14605 c 0.15599,-0.890512 0.3022,-1.775556 0.42558,-2.643848 z m 26.9921,0 c -0.0398,0.907065 -0.0996,1.78941 -0.17777,2.643848 h 9.75814 l -1.1517,-2.643848 z m -46.383335,4.40792 c -0.01365,0.0626 -0.02518,0.130344 -0.03917,0.192076 -0.214825,0.948286 -0.390599,1.856486 -0.534796,2.731226 h 10.685361 c 0.23779,-0.99886 0.44575,-1.98282 0.59279,-2.923302 z m 19.008585,0 c -0.0576,1.016942 -0.0888,1.989532 -0.0987,2.923302 h 9.43801 c 0.21352,-0.97241 0.41989,-1.94856 0.60861,-2.923302 z m 26.99888,0 c -0.14308,1.053512 -0.32746,2.034102 -0.55588,2.923302 h 10.66427 c 0.20061,-1.04798 0.30481,-2.03573 0.27945,-2.923302 z m -46.92942,5.564132 c -0.117906,1.21127 -0.164875,2.33784 -0.159684,3.39181 h 9.416164 c 0.38316,-1.11962 0.75002,-2.25701 1.08013,-3.39181 z m 19.86577,0 c 0.0443,1.21116 0.12924,2.33742 0.24253,3.39181 h 7.70407 c 0.28835,-1.10221 0.57488,-2.2318 0.85266,-3.39181 z m 25.84794,0 c -0.25795,1.21604 -0.41569,2.34173 -0.50015,3.39181 h 9.97205 c 0.44564,-1.13608 0.85612,-2.27855 1.19086,-3.39181 z m -45.737813,6.03264 c 0.125426,1.23429 0.333067,2.32699 0.585262,3.30594 h 6.446921 c 0.42477,-1.03801 0.86341,-2.14002 1.30008,-3.30594 z m 20.504503,0 c 0.21484,1.23336 0.47119,2.32882 0.74495,3.30594 h 4.93066 c 0.30256,-1.02529 0.61983,-2.12251 0.94757,-3.30594 z m 24.68119,0 c 0.0573,1.24329 0.23356,2.33947 0.47981,3.30594 h 6.87701 c 0.51504,-1.03608 1.0462,-2.14664 1.56145,-3.30594 z m -43.533855,6.3362 c 1.166661,2.5067 2.47362,3.55224 2.47362,3.55224 0,0 0.678591,-1.39709 1.623967,-3.55224 z m 20.643105,0 c 0.98158,2.33353 1.88609,3.35339 1.88609,3.35339 0,0 0.44176,-1.31218 1.07863,-3.35339 z m 24.55163,0 c 1.14784,2.08849 2.46081,2.95869 2.46081,2.95869 0,0 0.69304,-1.15793 1.6654,-2.95869 z M 78.371345,135.507 v 21.78349 H 44.65212 33.144981 v 46.9927 l 37.603646,33.4586 H 162.66865 V 135.507 Z m -30.722109,35.91339 h 30.722109 v 57.43099 L 47.649236,199.82706 Z m 30.722109,78.73091 v 4.01473 h 84.297305 v -4.01473 z m 0,7.49392 v 4.44181 h 84.297305 v -4.44181 z"
       id="rect815"
       inkscape:connector-curvature="0" />
  </g>
</svg>
