<?xml version="1.0" encoding="UTF-8" standalone="no"?>
<!-- Created with Inkscape (http://www.inkscape.org/) -->

<svg
   xmlns:dc="http://purl.org/dc/elements/1.1/"
   xmlns:cc="http://creativecommons.org/ns#"
   xmlns:rdf="http://www.w3.org/1999/02/22-rdf-syntax-ns#"
   xmlns:svg="http://www.w3.org/2000/svg"
   xmlns="http://www.w3.org/2000/svg"
   xmlns:sodipodi="http://sodipodi.sourceforge.net/DTD/sodipodi-0.dtd"
   xmlns:inkscape="http://www.inkscape.org/namespaces/inkscape"
   width="200mm"
   height="200mm"
   viewBox="0 0 200 200"
   version="1.1"
   id="svg8"
   inkscape:version="0.92.4 (unknown)"
   sodipodi:docname="noresult.svg"
   inkscape:export-filename="/home/royalcardman/catekeysis.png"
   inkscape:export-xdpi="90"
   inkscape:export-ydpi="90">
  <defs
     id="defs2" />
  <sodipodi:namedview
     id="base"
     pagecolor="#ffffff"
     bordercolor="#666666"
     borderopacity="1.0"
     inkscape:pageopacity="0.0"
     inkscape:pageshadow="2"
     inkscape:zoom="0.175"
     inkscape:cx="-973.2656"
     inkscape:cy="228.43696"
     inkscape:document-units="mm"
     inkscape:current-layer="g975"
     showgrid="false"
     showguides="false"
     inkscape:window-width="1920"
     inkscape:window-height="939"
     inkscape:window-x="0"
     inkscape:window-y="30"
     inkscape:window-maximized="1" />
  <metadata
     id="metadata5">
    <rdf:RDF>
      <cc:Work
         rdf:about="">
        <dc:format>image/svg+xml</dc:format>
        <dc:type
           rdf:resource="http://purl.org/dc/dcmitype/StillImage" />
        <dc:title></dc:title>
      </cc:Work>
    </rdf:RDF>
  </metadata>
  <g
     inkscape:label="Layer 1"
     inkscape:groupmode="layer"
     id="layer1"
     transform="translate(0,-97)">
    <g
       id="g905"
       transform="translate(0,114.13284)">
      <g
         id="g893">
        <g
           aria-label="Cate   sis"
           style="font-style:normal;font-variant:normal;font-weight:normal;font-stretch:normal;font-size:46.25047302px;line-height:125%;font-family:Raleway;-inkscape-font-specification:Raleway;letter-spacing:0px;word-spacing:0px;fill:#000000;fill-opacity:1;stroke:none;stroke-width:0.61942601px;stroke-linecap:butt;stroke-linejoin:miter;stroke-opacity:1"
           id="text817" />
      </g>
    </g>
    <g
       id="g855"
       transform="matrix(0.88194331,-0.64225629,0.64225629,0.88194331,-181.84342,43.583018)" />
    <g
       id="g967"
       transform="matrix(0.57223415,0,0,0.57223415,15.6877,56.07359)">
      <g
         id="g975"
         transform="translate(14.529069,3.1434631)">
        <path
           transform="matrix(0.8819433,-0.64225628,0.64225628,0.8819433,-181.84342,43.583017)"
           style="color:#000000;font-style:normal;font-variant:normal;font-weight:normal;font-stretch:normal;font-size:medium;line-height:normal;font-family:sans-serif;font-variant-ligatures:normal;font-variant-position:normal;font-variant-caps:normal;font-variant-numeric:normal;font-variant-alternates:normal;font-feature-settings:normal;text-indent:0;text-align:start;text-decoration:none;text-decoration-line:none;text-decoration-style:solid;text-decoration-color:#000000;letter-spacing:normal;word-spacing:normal;text-transform:none;writing-mode:lr-tb;direction:ltr;text-orientation:mixed;dominant-baseline:auto;baseline-shift:baseline;text-anchor:start;white-space:normal;shape-padding:0;clip-rule:nonzero;display:inline;overflow:visible;visibility:visible;opacity:1;isolation:auto;mix-blend-mode:normal;color-interpolation:sRGB;color-interpolation-filters:linearRGB;solid-color:#000000;solid-opacity:1;vector-effect:none;fill:none;fill-opacity:1;fill-rule:nonzero;stroke:#0b61a4;stroke-width:3.09711146;stroke-linecap:butt;stroke-linejoin:miter;stroke-miterlimit:4;stroke-dasharray:18.58266947, 6.19422315999999995;stroke-dashoffset:0;stroke-opacity:1;paint-order:normal;color-rendering:auto;image-rendering:auto;shape-rendering:auto;text-rendering:auto;enable-background:accumulate"
           d="m 127.33804,226.24347 c -6.11196,0 -11.13314,5.02116 -11.13314,11.13312 v 10.19614 c 0,5.11289 3.51463,9.46073 8.24146,10.74618 v 1.57607 h -1.65095 v 9.62529 h 1.65095 v 9.09356 11.71646 h 8.06421 8.06505 v -4.16566 h -3.72795 v -2.08782 h -2.81513 v -1.98632 h 0.91286 v -1.74913 h 5.63022 v -1.72753 h -8.06505 v -9.09356 h 1.47454 v -9.62529 h -1.47454 v -1.6626 c 4.57252,-1.38563 7.93608,-5.65659 7.93608,-10.65965 v -10.19614 c 0,-6.11196 -5.01783,-11.13312 -11.12981,-11.13312 z m 0,6.44071 h 1.9788 c 2.65501,0 4.68908,2.03742 4.68908,4.69241 v 10.19614 c 0,2.655 -2.03407,4.69242 -4.68908,4.69242 h -1.9788 c -2.65499,0 -4.69242,-2.03742 -4.69242,-4.69242 v -10.19614 c 0,-2.65499 2.03743,-4.69241 4.69242,-4.69241 z"
           id="rect819"
           inkscape:connector-curvature="0" />
        <g
           id="g945"
           transform="rotate(-36.357904,100,259.11711)"
           style="stroke:#000000;stroke-width:5.19367838;stroke-miterlimit:4;stroke-dasharray:none;stroke-opacity:1">
          <g
             style="stroke-width:5.19367838;stroke-miterlimit:4;stroke-dasharray:none"
             id="g958"
             transform="translate(39.951604,12.890423)">
            <path
               style="opacity:1;fill:none;fill-opacity:1;stroke:#0b61a4;stroke-width:5.19367838;stroke-linecap:butt;stroke-linejoin:miter;stroke-miterlimit:4;stroke-dasharray:none;stroke-dashoffset:0;stroke-opacity:1;paint-order:normal"
               d="M 100,124.94219 A 64.498377,64.498377 0 0 0 35.501614,189.44057 64.498377,64.498377 0 0 0 100,253.93896 64.498377,64.498377 0 0 0 164.49839,189.44057 64.498377,64.498377 0 0 0 100,124.94219 Z m 0,18.10283 A 46.395551,46.395551 0 0 1 146.39556,189.44057 46.395551,46.395551 0 0 1 100,235.83613 46.395551,46.395551 0 0 1 53.60444,189.44057 46.395551,46.395551 0 0 1 100,143.04502 Z"
               id="path887"
               inkscape:connector-curvature="0" />
            <path
               style="opacity:1;fill:none;fill-opacity:1;stroke:#0b61a4;stroke-width:19.62965012;stroke-linecap:butt;stroke-linejoin:miter;stroke-miterlimit:4;stroke-dasharray:none;stroke-dashoffset:0;stroke-opacity:1;paint-order:normal"
               d="m 345.62695,590.71289 v 80.14453 c 0,0.1081 0.0868,0.19531 0.19336,0.19531 h 64.26563 c 0.10658,0 0.1914,-0.0872 0.1914,-0.19531 v -80.12695 a 243.7734,243.7734 0 0 1 -32.32422,2.42383 243.7734,243.7734 0 0 1 -32.32617,-2.44141 z"
               transform="matrix(0.26458333,0,0,0.26458333,0,97)"
               id="rect907"
               inkscape:connector-curvature="0" />
            <path
               style="opacity:1;fill:none;fill-opacity:1;stroke:#0b61a4;stroke-width:5.19367838;stroke-linecap:butt;stroke-linejoin:miter;stroke-miterlimit:4;stroke-dasharray:none;stroke-dashoffset:0;stroke-opacity:1;paint-order:normal"
               d="m 111.81951,276.50294 c 0,0 10.82137,78.02475 7.24214,116.94301 -0.008,0.095 0.0187,0.2197 -0.0697,0.27982 -9.7641,6.64229 -27.991117,6.64246 -37.755065,0 -0.08835,-0.0602 -0.06092,-0.18482 -0.06965,-0.27982 -3.578326,-38.91832 7.242131,-116.94301 7.242131,-116.94301 7.992369,-2.50409 15.559514,-2.64583 23.410144,0 z"
               id="rect907-6"
               inkscape:connector-curvature="0"
               sodipodi:nodetypes="caaaacc" />
          </g>
        </g>
      </g>
    </g>
  </g>
</svg>
