<?xml version="1.0" standalone="no"?>
<!DOCTYPE svg PUBLIC "-//W3C//DTD SVG 20010904//EN"
 "http://www.w3.org/TR/2001/REC-SVG-20010904/DTD/svg10.dtd">
<svg version="1.0" xmlns="http://www.w3.org/2000/svg"
 width="700.000000pt" height="700.000000pt" viewBox="0 0 700.000000 700.000000"
 preserveAspectRatio="xMidYMid meet">
<metadata>
Created by potrace 1.11, written by Peter Selinger 2001-2013
</metadata>
<g transform="translate(0.000000,700.000000) scale(0.100000,-0.100000)"
fill="#000000" stroke="none">
<path d="M960 6390 c-171 -41 -314 -199 -350 -386 -8 -43 -10 -728 -8 -2539
l3 -2480 24 -60 c65 -162 171 -265 318 -308 47 -14 334 -16 2540 -16 1491 0
2508 4 2538 10 122 22 254 126 314 245 65 129 61 -56 61 2639 0 2676 3 2520
-58 2643 -60 121 -148 198 -277 242 -57 20 -85 20 -2564 19 -1378 -1 -2522 -5
-2541 -9z"/>
</g>
</svg>
